<svg width="72" height="73" viewBox="0 0 72 73" fill="none" xmlns="http://www.w3.org/2000/svg">
<rect x="0.6" y="1.25491" width="70.8" height="70.8" rx="12.6" stroke="#D3E8FF" stroke-width="1.2"/>
<path d="M57.4204 23.6257L49.4877 15.693C49.3502 15.5602 49.1669 15.4853 48.9757 15.4839H30.9469C30.3736 15.4856 29.8243 15.7141 29.419 16.1194C29.0136 16.5248 28.7851 17.0741 28.7834 17.6473V22.0103C24.8989 22.1924 21.2338 23.8637 18.5492 26.677C15.8646 29.4904 14.3668 33.2298 14.3668 37.1185C14.3668 41.0072 15.8646 44.7466 18.5492 47.56C21.2338 50.3734 24.8989 52.0446 28.7834 52.2267V56.5897C28.7851 57.1629 29.0136 57.7122 29.419 58.1176C29.8243 58.5229 30.3736 58.7514 30.9469 58.7531H55.4661C56.0394 58.7514 56.5887 58.5229 56.994 58.1176C57.3994 57.7122 57.6279 57.1629 57.6296 56.5897V24.1377C57.6281 23.9465 57.5533 23.7632 57.4204 23.6257ZM49.6969 17.943L55.1704 23.4166H50.418C50.2268 23.4166 50.0433 23.3406 49.9081 23.2054C49.7729 23.0701 49.6969 22.8867 49.6969 22.6954V17.943ZM15.8026 37.1185C15.8073 33.611 17.1553 30.2386 19.5696 27.6942C21.9839 25.1498 25.281 23.6268 28.7834 23.4382V36.8228L19.3363 46.2699C17.0621 43.7646 15.8024 40.5021 15.8026 37.1185ZM20.3531 47.2868L29.8002 37.8397H43.1849C43.0535 40.4237 42.1918 42.9175 40.6997 45.0313C39.2077 47.1452 37.1466 48.7924 34.7558 49.7816C32.365 50.7709 29.7426 51.0616 27.1931 50.62C24.6437 50.1784 22.2719 49.0225 20.3531 47.2868ZM56.1873 56.5897C56.1873 56.7809 56.1113 56.9644 55.976 57.0996C55.8408 57.2348 55.6574 57.3108 55.4661 57.3108H30.9469C30.7556 57.3108 30.5722 57.2348 30.4369 57.0996C30.3017 56.9644 30.2257 56.7809 30.2257 56.5897V52.2267C34.1089 52.0391 37.7714 50.3663 40.4559 47.5543C43.1404 44.7423 44.6415 41.0062 44.6488 37.1185C44.6488 36.9272 44.5728 36.7438 44.4376 36.6086C44.3023 36.4733 44.1189 36.3974 43.9276 36.3974H30.2257V17.6473C30.2257 17.4561 30.3017 17.2727 30.4369 17.1374C30.5722 17.0022 30.7556 16.9262 30.9469 16.9262H48.2546V22.6954C48.2563 23.2687 48.4848 23.818 48.8901 24.2233C49.2955 24.6287 49.8448 24.8572 50.418 24.8589H56.1873V56.5897Z" fill="url(#paint0_linear_1_1822)"/>
<path d="M32.3891 19.0897C32.1979 19.0897 32.0144 19.1656 31.8792 19.3009C31.744 19.4361 31.668 19.6195 31.668 19.8108V34.2339C31.668 34.4252 31.744 34.6086 31.8792 34.7438C32.0144 34.8791 32.1979 34.955 32.3891 34.955H46.8122C47.0035 34.955 47.1869 34.8791 47.3221 34.7438C47.4574 34.6086 47.5334 34.4252 47.5334 34.2339C47.529 30.2187 45.932 26.3693 43.0929 23.5301C40.2537 20.691 36.4043 19.094 32.3891 19.0897ZM33.1103 33.5127V20.5536C36.4884 20.735 39.6802 22.1585 42.0724 24.5507C44.4645 26.9428 45.888 30.1346 46.0694 33.5127H33.1103Z" fill="url(#paint1_linear_1_1822)"/>
<path d="M48.2545 42.8877C46.9708 42.8877 45.716 43.2684 44.6486 43.9816C43.5813 44.6947 42.7494 45.7084 42.2582 46.8944C41.7669 48.0803 41.6384 49.3853 41.8888 50.6443C42.1392 51.9033 42.7574 53.0598 43.6651 53.9675C44.5728 54.8752 45.7293 55.4934 46.9883 55.7438C48.2473 55.9942 49.5523 55.8657 50.7383 55.3745C51.9242 54.8832 52.9379 54.0513 53.651 52.984C54.3642 51.9167 54.7449 50.6618 54.7449 49.3781C54.7422 47.6576 54.0575 46.0083 52.8409 44.7917C51.6243 43.5751 49.975 42.8904 48.2545 42.8877ZM48.2545 54.4262C47.2561 54.4262 46.2801 54.1301 45.4499 53.5754C44.6198 53.0208 43.9728 52.2324 43.5907 51.3099C43.2086 50.3875 43.1086 49.3725 43.3034 48.3933C43.4982 47.4141 43.979 46.5146 44.685 45.8086C45.3909 45.1026 46.2904 44.6218 47.2697 44.427C48.2489 44.2323 49.2639 44.3322 50.1863 44.7143C51.1087 45.0964 51.8971 45.7434 52.4518 46.5736C53.0065 47.4037 53.3026 48.3797 53.3026 49.3781C53.301 50.7165 52.7687 51.9996 51.8223 52.946C50.876 53.8923 49.5929 54.4247 48.2545 54.4262Z" fill="url(#paint2_linear_1_1822)"/>
<path d="M46.8122 50.522L45.1586 48.8684L44.1389 49.8881L46.3023 52.0516C46.4376 52.1868 46.621 52.2627 46.8122 52.2627C47.0034 52.2627 47.1868 52.1868 47.3221 52.0516L51.649 47.7247L50.6293 46.705L46.8122 50.522Z" fill="url(#paint3_linear_1_1822)"/>
<path d="M48.9757 27.7435H54.7449V29.1858H48.9757V27.7435Z" fill="url(#paint4_linear_1_1822)"/>
<path d="M48.9757 32.0704H54.7449V33.5127H48.9757V32.0704Z" fill="url(#paint5_linear_1_1822)"/>
<path d="M48.9757 36.3974H54.7449V37.8397H48.9757V36.3974Z" fill="url(#paint6_linear_1_1822)"/>
<defs>
<linearGradient id="paint0_linear_1_1822" x1="3.40879" y1="-4.94884" x2="61.574" y2="-1.11672" gradientUnits="userSpaceOnUse">
<stop stop-color="#26D0F5"/>
<stop offset="1" stop-color="#2682F5"/>
</linearGradient>
<linearGradient id="paint1_linear_1_1822" x1="3.40879" y1="-4.94884" x2="61.574" y2="-1.11672" gradientUnits="userSpaceOnUse">
<stop stop-color="#26D0F5"/>
<stop offset="1" stop-color="#2682F5"/>
</linearGradient>
<linearGradient id="paint2_linear_1_1822" x1="3.40879" y1="-4.94884" x2="61.574" y2="-1.11672" gradientUnits="userSpaceOnUse">
<stop stop-color="#26D0F5"/>
<stop offset="1" stop-color="#2682F5"/>
</linearGradient>
<linearGradient id="paint3_linear_1_1822" x1="3.40879" y1="-4.94884" x2="61.574" y2="-1.11672" gradientUnits="userSpaceOnUse">
<stop stop-color="#26D0F5"/>
<stop offset="1" stop-color="#2682F5"/>
</linearGradient>
<linearGradient id="paint4_linear_1_1822" x1="3.40879" y1="-4.94884" x2="61.574" y2="-1.11672" gradientUnits="userSpaceOnUse">
<stop stop-color="#26D0F5"/>
<stop offset="1" stop-color="#2682F5"/>
</linearGradient>
<linearGradient id="paint5_linear_1_1822" x1="3.40879" y1="-4.94884" x2="61.574" y2="-1.11672" gradientUnits="userSpaceOnUse">
<stop stop-color="#26D0F5"/>
<stop offset="1" stop-color="#2682F5"/>
</linearGradient>
<linearGradient id="paint6_linear_1_1822" x1="3.40879" y1="-4.94884" x2="61.574" y2="-1.11672" gradientUnits="userSpaceOnUse">
<stop stop-color="#26D0F5"/>
<stop offset="1" stop-color="#2682F5"/>
</linearGradient>
</defs>
</svg>
