<svg width="121" height="45" viewBox="0 0 121 45" fill="none" xmlns="http://www.w3.org/2000/svg">
<path d="M54.8149 29.126V16.6905H59.1625C60.0288 16.6905 60.7432 16.8403 61.3059 17.1398C61.8686 17.4353 62.2876 17.8341 62.5628 18.336C62.8381 18.8339 62.9757 19.3865 62.9757 19.9937C62.9757 20.528 62.8806 20.9692 62.6903 21.3174C62.5041 21.6655 62.2572 21.9408 61.9496 22.1432C61.646 22.3456 61.316 22.4953 60.9598 22.5925V22.7139C61.3403 22.7382 61.7229 22.8718 62.1074 23.1147C62.492 23.3576 62.8138 23.7057 63.0729 24.1591C63.3319 24.6124 63.4615 25.167 63.4615 25.8228C63.4615 26.4462 63.3198 27.0068 63.0364 27.5047C62.7531 28.0027 62.3058 28.3973 61.6945 28.6888C61.0833 28.9802 60.2878 29.126 59.3082 29.126H54.8149ZM56.3208 27.7901H59.3082C60.2919 27.7901 60.9902 27.5999 61.4031 27.2194C61.82 26.8348 62.0285 26.3693 62.0285 25.8228C62.0285 25.4018 61.9212 25.0132 61.7067 24.657C61.4921 24.2967 61.1865 24.0093 60.7898 23.7948C60.3931 23.5762 59.9235 23.4669 59.3811 23.4669H56.3208V27.7901ZM56.3208 22.1553H59.1139C59.5673 22.1553 59.9761 22.0663 60.3405 21.8881C60.7088 21.71 61.0003 21.4591 61.2148 21.1352C61.4334 20.8114 61.5427 20.4309 61.5427 19.9937C61.5427 19.4472 61.3525 18.9837 60.972 18.6032C60.5914 18.2186 59.9883 18.0263 59.1625 18.0263H56.3208V22.1553ZM65.9358 29.126V16.6905H67.4417V27.7901H73.2222V29.126H65.9358ZM75.5539 29.126V16.6905H77.0598V22.8597H77.2055L82.7917 16.6905H84.7591L79.5371 22.301L84.7591 29.126H82.9375L78.6142 23.3454L77.0598 25.0942V29.126H75.5539ZM86.7082 29.126V16.6905H91.0557C91.922 16.6905 92.6365 16.8403 93.1992 17.1398C93.7618 17.4353 94.1808 17.8341 94.4561 18.336C94.7313 18.8339 94.869 19.3865 94.869 19.9937C94.869 20.528 94.7738 20.9692 94.5836 21.3174C94.3974 21.6655 94.1504 21.9408 93.8428 22.1432C93.5392 22.3456 93.2093 22.4953 92.853 22.5925V22.7139C93.2336 22.7382 93.6161 22.8718 94.0007 23.1147C94.3852 23.3576 94.707 23.7057 94.9661 24.1591C95.2252 24.6124 95.3547 25.167 95.3547 25.8228C95.3547 26.4462 95.213 27.0068 94.9297 27.5047C94.6463 28.0027 94.199 28.3973 93.5878 28.6888C92.9765 28.9802 92.1811 29.126 91.2015 29.126H86.7082ZM88.214 27.7901H91.2015C92.1851 27.7901 92.8834 27.5999 93.2963 27.2194C93.7133 26.8348 93.9217 26.3693 93.9217 25.8228C93.9217 25.4018 93.8145 25.0132 93.5999 24.657C93.3854 24.2967 93.0797 24.0093 92.683 23.7948C92.2863 23.5762 91.8168 23.4669 91.2743 23.4669H88.214V27.7901ZM88.214 22.1553H91.0072C91.4605 22.1553 91.8694 22.0663 92.2337 21.8881C92.6021 21.71 92.8935 21.4591 93.1081 21.1352C93.3267 20.8114 93.436 20.4309 93.436 19.9937C93.436 19.4472 93.2457 18.9837 92.8652 18.6032C92.4847 18.2186 91.8815 18.0263 91.0557 18.0263H88.214V22.1553ZM108.321 22.9082C108.321 24.2198 108.085 25.3532 107.611 26.3086C107.137 27.2639 106.488 28.0006 105.662 28.5188C104.836 29.0369 103.893 29.296 102.832 29.296C101.772 29.296 100.829 29.0369 100.003 28.5188C99.177 28.0006 98.5273 27.2639 98.0537 26.3086C97.5801 25.3532 97.3433 24.2198 97.3433 22.9082C97.3433 21.5967 97.5801 20.4632 98.0537 19.5079C98.5273 18.5526 99.177 17.8158 100.003 17.2977C100.829 16.7796 101.772 16.5205 102.832 16.5205C103.893 16.5205 104.836 16.7796 105.662 17.2977C106.488 17.8158 107.137 18.5526 107.611 19.5079C108.085 20.4632 108.321 21.5967 108.321 22.9082ZM106.864 22.9082C106.864 21.8315 106.684 20.9227 106.324 20.1819C105.968 19.4411 105.484 18.8805 104.873 18.5C104.265 18.1194 103.585 17.9292 102.832 17.9292C102.079 17.9292 101.397 18.1194 100.786 18.5C100.179 18.8805 99.6952 19.4411 99.3349 20.1819C98.9787 20.9227 98.8006 21.8315 98.8006 22.9082C98.8006 23.985 98.9787 24.8938 99.3349 25.6346C99.6952 26.3754 100.179 26.936 100.786 27.3165C101.397 27.697 102.079 27.8873 102.832 27.8873C103.585 27.8873 104.265 27.697 104.873 27.3165C105.484 26.936 105.968 26.3754 106.324 25.6346C106.684 24.8938 106.864 23.985 106.864 22.9082ZM111.382 16.6905L114.588 21.8639H114.685L117.891 16.6905H119.664L115.754 22.9082L119.664 29.126H117.891L114.685 24.0498H114.588L111.382 29.126H109.609L113.616 22.9082L109.609 16.6905H111.382Z" fill="white"/>
<path d="M8.31999 28.7114V16.6214H12.5468C13.389 16.6214 14.0836 16.767 14.6307 17.0582C15.1777 17.3455 15.585 17.7332 15.8527 18.2212C16.1203 18.7053 16.2541 19.2425 16.2541 19.8328C16.2541 20.3523 16.1616 20.7813 15.9766 21.1197C15.7956 21.4582 15.5555 21.7258 15.2564 21.9226C14.9612 22.1194 14.6405 22.265 14.2942 22.3594V22.4775C14.6641 22.5011 15.036 22.631 15.4099 22.8671C15.7838 23.1032 16.0967 23.4417 16.3485 23.8825C16.6004 24.3233 16.7263 24.8624 16.7263 25.5C16.7263 26.1061 16.5886 26.6512 16.3131 27.1352C16.0376 27.6193 15.6027 28.003 15.0085 28.2864C14.4142 28.5697 13.6409 28.7114 12.6885 28.7114H8.31999ZM9.78402 27.4127H12.6885C13.6448 27.4127 14.3237 27.2277 14.7251 26.8578C15.1305 26.4839 15.3332 26.0313 15.3332 25.5C15.3332 25.0907 15.2289 24.7129 15.0203 24.3666C14.8117 24.0163 14.5146 23.7369 14.1289 23.5283C13.7432 23.3158 13.2867 23.2095 12.7593 23.2095H9.78402V27.4127ZM9.78402 21.9344H12.4996C12.9403 21.9344 13.3378 21.8478 13.692 21.6746C14.0502 21.5015 14.3335 21.2575 14.5421 20.9426C14.7546 20.6278 14.8609 20.2578 14.8609 19.8328C14.8609 19.3015 14.6759 18.8509 14.306 18.4809C13.936 18.1071 13.3496 17.9201 12.5468 17.9201H9.78402V21.9344ZM19.132 28.7114V16.6214H20.596V27.4127H26.216V28.7114H19.132ZM28.4829 28.7114V16.6214H29.9469V22.6192H30.0886L35.5196 16.6214H37.4323L32.3554 22.0761L37.4323 28.7114H35.6613L31.4581 23.0914L29.9469 24.7916V28.7114H28.4829Z" fill="white"/>
<rect x="1" y="1" width="42.7469" height="42.7469" stroke="white" stroke-width="1.18742"/>
</svg>
