<svg width="38" height="38" viewBox="0 0 38 38" fill="none" xmlns="http://www.w3.org/2000/svg">
<path d="M15.125 25V15.6562H12.2188V25H15.125ZM13.6562 14.4062C14.5938 14.4062 15.3438 13.625 15.3438 12.6875C15.3438 11.7812 14.5938 11.0312 13.6562 11.0312C12.75 11.0312 12 11.7812 12 12.6875C12 13.625 12.75 14.4062 13.6562 14.4062ZM25.9688 25H26V19.875C26 17.375 25.4375 15.4375 22.5 15.4375C21.0938 15.4375 20.1562 16.2188 19.75 16.9375H19.7188V15.6562H16.9375V25H19.8438V20.375C19.8438 19.1562 20.0625 18 21.5625 18C23.0625 18 23.0938 19.375 23.0938 20.4688V25H25.9688Z" fill="#333B4B"/>
<circle cx="19" cy="19" r="18.5" stroke="#B5B5B5"/>
</svg>
