<svg width="25" height="26" viewBox="0 0 25 26" fill="none" xmlns="http://www.w3.org/2000/svg">
<path d="M23.125 0.839355H1.875C0.833333 0.839355 0 1.67269 0 2.61019V23.9644C0 24.9019 0.833333 25.7352 1.875 25.7352H23.125C24.1667 25.7352 25 24.9019 25 23.9644V2.61019C25 1.67269 24.1667 0.839355 23.125 0.839355ZM7.39583 22.0894H3.75V10.2144H7.39583V22.0894ZM5.625 8.54769C4.47917 8.54769 3.4375 7.61019 3.4375 6.36019C3.4375 5.11019 4.375 4.17269 5.625 4.17269C6.77083 4.17269 7.8125 5.11019 7.8125 6.36019C7.8125 7.61019 6.77083 8.54769 5.625 8.54769ZM21.3542 21.9852H17.7083V16.1519C17.7083 14.7977 17.7083 12.9227 15.7292 12.9227C13.75 12.9227 13.5417 14.4852 13.5417 15.9435V21.881H9.89583V10.2144H13.3333V11.7769H13.4375C13.9583 10.8394 15.2083 9.79769 16.9792 9.79769C20.7292 9.79769 21.4583 12.2977 21.4583 15.5269V21.9852H21.3542Z" fill="#2682F5"/>
</svg>
