<svg width="18" height="14" viewBox="0 0 18 14" fill="none" xmlns="http://www.w3.org/2000/svg">
<path d="M16.5 0.949341H1.5C1.16848 0.949341 0.850537 1.08104 0.616116 1.31546C0.381696 1.54988 0.25 1.86782 0.25 2.19934V12.1993C0.25 12.5309 0.381696 12.8488 0.616116 13.0832C0.850537 13.3176 1.16848 13.4493 1.5 13.4493H16.5C16.8315 13.4493 17.1495 13.3176 17.3839 13.0832C17.6183 12.8488 17.75 12.5309 17.75 12.1993V2.19934C17.75 1.86782 17.6183 1.54988 17.3839 1.31546C17.1495 1.08104 16.8315 0.949341 16.5 0.949341V0.949341ZM15.125 2.19934L9 6.43684L2.875 2.19934H15.125ZM1.5 12.1993V2.76809L8.64375 7.71184C8.74837 7.78442 8.87267 7.82331 9 7.82331C9.12733 7.82331 9.25163 7.78442 9.35625 7.71184L16.5 2.76809V12.1993H1.5Z" fill="#212B36"/>
</svg>
