<svg width="38" height="38" viewBox="0 0 38 38" fill="none" xmlns="http://www.w3.org/2000/svg">
<path d="M19 15.4062C17 15.4062 15.4062 17.0312 15.4062 19C15.4062 21 17 22.5938 19 22.5938C20.9688 22.5938 22.5938 21 22.5938 19C22.5938 17.0312 20.9688 15.4062 19 15.4062ZM19 21.3438C17.7188 21.3438 16.6562 20.3125 16.6562 19C16.6562 17.7188 17.6875 16.6875 19 16.6875C20.2812 16.6875 21.3125 17.7188 21.3125 19C21.3125 20.3125 20.2812 21.3438 19 21.3438ZM23.5625 15.2812C23.5625 14.8125 23.1875 14.4375 22.7188 14.4375C22.25 14.4375 21.875 14.8125 21.875 15.2812C21.875 15.75 22.25 16.125 22.7188 16.125C23.1875 16.125 23.5625 15.75 23.5625 15.2812ZM25.9375 16.125C25.875 15 25.625 14 24.8125 13.1875C24 12.375 23 12.125 21.875 12.0625C20.7188 12 17.25 12 16.0938 12.0625C14.9688 12.125 14 12.375 13.1562 13.1875C12.3438 14 12.0938 15 12.0312 16.125C11.9688 17.2812 11.9688 20.75 12.0312 21.9062C12.0938 23.0312 12.3438 24 13.1562 24.8438C14 25.6562 14.9688 25.9062 16.0938 25.9688C17.25 26.0312 20.7188 26.0312 21.875 25.9688C23 25.9062 24 25.6562 24.8125 24.8438C25.625 24 25.875 23.0312 25.9375 21.9062C26 20.75 26 17.2812 25.9375 16.125ZM24.4375 23.125C24.2188 23.75 23.7188 24.2188 23.125 24.4688C22.1875 24.8438 20 24.75 19 24.75C17.9688 24.75 15.7812 24.8438 14.875 24.4688C14.25 24.2188 13.7812 23.75 13.5312 23.125C13.1562 22.2188 13.25 20.0312 13.25 19C13.25 18 13.1562 15.8125 13.5312 14.875C13.7812 14.2812 14.25 13.8125 14.875 13.5625C15.7812 13.1875 17.9688 13.2812 19 13.2812C20 13.2812 22.1875 13.1875 23.125 13.5625C23.7188 13.7812 24.1875 14.2812 24.4375 14.875C24.8125 15.8125 24.7188 18 24.7188 19C24.7188 20.0312 24.8125 22.2188 24.4375 23.125Z" fill="#333B4B"/>
<circle cx="19" cy="19" r="18.5" stroke="#B5B5B5"/>
</svg>
