<svg width="38" height="38" viewBox="0 0 38 38" fill="none" xmlns="http://www.w3.org/2000/svg">
<path d="M25.3438 15.75C25.9688 15.2812 26.5312 14.7188 26.9688 14.0625C26.4062 14.3125 25.75 14.5 25.0938 14.5625C25.7812 14.1562 26.2812 13.5312 26.5312 12.75C25.9062 13.125 25.1875 13.4062 24.4688 13.5625C23.8438 12.9062 23 12.5312 22.0625 12.5312C20.25 12.5312 18.7812 14 18.7812 15.8125C18.7812 16.0625 18.8125 16.3125 18.875 16.5625C16.1562 16.4062 13.7188 15.0938 12.0938 13.125C11.8125 13.5938 11.6562 14.1562 11.6562 14.7812C11.6562 15.9062 12.2188 16.9062 13.125 17.5C12.5938 17.4688 12.0625 17.3438 11.625 17.0938V17.125C11.625 18.7188 12.75 20.0312 14.25 20.3438C14 20.4062 13.6875 20.4688 13.4062 20.4688C13.1875 20.4688 13 20.4375 12.7812 20.4062C13.1875 21.7188 14.4062 22.6562 15.8438 22.6875C14.7188 23.5625 13.3125 24.0938 11.7812 24.0938C11.5 24.0938 11.25 24.0625 11 24.0312C12.4375 24.9688 14.1562 25.5 16.0312 25.5C22.0625 25.5 25.3438 20.5312 25.3438 16.1875C25.3438 16.0312 25.3438 15.9062 25.3438 15.75Z" fill="#333B4B"/>
<circle cx="19" cy="19" r="18.5" stroke="#B5B5B5"/>
</svg>
